<svg width="24" height="24" viewBox="0 0 24 24" fill="none" xmlns="http://www.w3.org/2000/svg">
<path d="M17.5917 7.22188L13.1128 4.56771C12.4388 4.16623 11.6054 4.16623 10.9314 4.56771L6.45256 7.22188C5.77856 7.62335 5.35822 8.35939 5.35822 9.16233V9.60841C5.10456 9.22924 4.75669 8.87238 4.3291 8.57499C3.61887 8.07687 2.82891 7.84639 2.15491 7.891C2.3216 8.60473 2.8434 9.3482 3.61887 9.89093C3.8073 10.0173 3.99573 10.1288 4.1914 10.2255C3.74207 10.2701 3.28549 10.3816 2.82166 10.5526C1.72007 10.9764 0.850393 11.6901 0.37207 12.4931C1.27074 12.8648 2.48829 12.8648 3.69134 12.4038C4.3436 12.1585 4.90889 11.8016 5.36547 11.3927V14.4558C5.36547 15.2588 5.77856 15.9948 6.45981 16.3963L10.9386 19.0504C11.6126 19.4519 12.4461 19.4519 13.1201 19.0504L14.1202 18.4557L16.5553 19.8757C16.6205 19.9129 16.693 19.9054 16.751 19.8757C16.809 19.8385 16.8452 19.779 16.8452 19.7047L16.8235 16.8572L17.5917 16.4037C18.2657 16.0022 18.686 15.2662 18.686 14.4632V9.1549C18.686 8.35939 18.2729 7.62335 17.5917 7.22188ZM12.0257 14.7681C6.40908 14.7681 6.37284 11.2589 6.43807 10.4485C6.44532 10.3667 6.52504 10.3073 6.60476 10.3296C8.69923 11.0136 12.0257 10.9466 12.0257 10.9466C12.0257 10.9466 15.3523 11.0136 17.4467 10.3296C17.5265 10.3073 17.6062 10.3593 17.6134 10.4485C17.6786 11.2589 17.6424 14.7681 12.0257 14.7681Z" fill="#FF8D00" style="fill:#FF8D00;fill:color(display-p3 1.0000 0.5529 0.0000);fill-opacity:1;"/>
<path d="M11.3589 12.308C9.30792 12.3006 8.3078 11.6835 8.11212 11.5497C8.09762 11.5422 8.07588 11.5497 8.07588 11.572C8.06863 11.7801 8.10487 12.6203 9.27169 12.9548C10.7501 13.3712 11.2864 12.5385 11.3807 12.3526C11.3879 12.3303 11.3734 12.308 11.3589 12.308Z" fill="#FF8D00" style="fill:#FF8D00;fill:color(display-p3 1.0000 0.5529 0.0000);fill-opacity:1;"/>
<path d="M15.6491 11.5491C15.4534 11.683 14.4533 12.3 12.4023 12.3075C12.3805 12.3075 12.3733 12.3298 12.3805 12.3446C12.482 12.5305 13.011 13.3706 14.4895 12.9468C15.6563 12.6123 15.6925 11.7722 15.6853 11.564C15.6853 11.5491 15.6636 11.5343 15.6491 11.5491Z" fill="#FF8D00" style="fill:#FF8D00;fill:color(display-p3 1.0000 0.5529 0.0000);fill-opacity:1;"/>
</svg>
