<svg width="40" height="40" viewBox="0 0 40 40" fill="none" xmlns="http://www.w3.org/2000/svg">
<path d="M12 0.5H28C34.3513 0.5 39.5 5.64873 39.5 12V28C39.5 34.3513 34.3513 39.5 28 39.5H12C5.64873 39.5 0.5 34.3513 0.5 28V12C0.5 5.64873 5.64873 0.5 12 0.5Z" stroke="#DADFE3" style="stroke:#DADFE3;stroke:color(display-p3 0.8549 0.8745 0.8902);stroke-opacity:1;"/>
<path d="M20 29.5C18.7 29.5 17.4667 29.25 16.3 28.75C15.15 28.25 14.1417 27.575 13.275 26.725C12.425 25.8583 11.75 24.85 11.25 23.7C10.75 22.5333 10.5 21.3 10.5 20C10.5 18.6833 10.75 17.45 11.25 16.3C11.75 15.15 12.425 14.15 13.275 13.3C14.1417 12.4333 15.15 11.75 16.3 11.25C17.4667 10.75 18.7 10.5 20 10.5C21.3167 10.5 22.55 10.75 23.7 11.25C24.85 11.75 25.85 12.4333 26.7 13.3C27.5667 14.15 28.25 15.15 28.75 16.3C29.25 17.45 29.5 18.6833 29.5 20C29.5 21.3 29.25 22.5333 28.75 23.7C28.25 24.85 27.5667 25.8583 26.7 26.725C25.85 27.575 24.85 28.25 23.7 28.75C22.55 29.25 21.3167 29.5 20 29.5ZM20 27.975C20.5167 27.3083 20.9417 26.6333 21.275 25.95C21.625 25.25 21.9167 24.4917 22.15 23.675H17.85C18.0833 24.5083 18.3667 25.275 18.7 25.975C19.05 26.6583 19.4833 27.325 20 27.975ZM18.075 27.7C17.6917 27.15 17.3417 26.525 17.025 25.825C16.725 25.125 16.4917 24.4083 16.325 23.675H12.925C13.4583 24.7083 14.1667 25.5833 15.05 26.3C15.9333 27 16.9417 27.4667 18.075 27.7ZM21.925 27.7C23.0583 27.4667 24.0667 27 24.95 26.3C25.8333 25.5833 26.5417 24.7083 27.075 23.675H23.675C23.475 24.4083 23.225 25.1333 22.925 25.85C22.625 26.55 22.2917 27.1667 21.925 27.7ZM12.3 22.175H16.025C15.9583 21.8083 15.9083 21.45 15.875 21.1C15.8417 20.7333 15.825 20.3667 15.825 20C15.825 19.6333 15.8417 19.275 15.875 18.925C15.9083 18.5583 15.9583 18.1917 16.025 17.825H12.3C12.2 18.1583 12.125 18.5083 12.075 18.875C12.025 19.2417 12 19.6167 12 20C12 20.3833 12.025 20.7583 12.075 21.125C12.125 21.4917 12.2 21.8417 12.3 22.175ZM17.525 22.175H22.475C22.5417 21.8083 22.5917 21.45 22.625 21.1C22.6583 20.75 22.675 20.3833 22.675 20C22.675 19.6167 22.6583 19.25 22.625 18.9C22.5917 18.55 22.5417 18.1917 22.475 17.825H17.525C17.4583 18.1917 17.4083 18.55 17.375 18.9C17.3417 19.25 17.325 19.6167 17.325 20C17.325 20.3833 17.3417 20.75 17.375 21.1C17.4083 21.45 17.4583 21.8083 17.525 22.175ZM23.975 22.175H27.7C27.8 21.8417 27.875 21.4917 27.925 21.125C27.975 20.7583 28 20.3833 28 20C28 19.6167 27.975 19.2417 27.925 18.875C27.875 18.5083 27.8 18.1583 27.7 17.825H23.975C24.0417 18.1917 24.0917 18.5583 24.125 18.925C24.1583 19.275 24.175 19.6333 24.175 20C24.175 20.3667 24.1583 20.7333 24.125 21.1C24.0917 21.45 24.0417 21.8083 23.975 22.175ZM23.675 16.325H27.075C26.5417 15.275 25.8333 14.4083 24.95 13.725C24.0833 13.025 23.075 12.5417 21.925 12.275C22.3083 12.8583 22.65 13.5 22.95 14.2C23.25 14.8833 23.4917 15.5917 23.675 16.325ZM17.85 16.325H22.15C21.9167 15.4917 21.6167 14.725 21.25 14.025C20.9 13.3083 20.4833 12.6417 20 12.025C19.5167 12.6417 19.0917 13.3083 18.725 14.025C18.375 14.725 18.0833 15.4917 17.85 16.325ZM12.925 16.325H16.325C16.5083 15.5917 16.75 14.8833 17.05 14.2C17.35 13.5 17.6917 12.8583 18.075 12.275C16.9083 12.5417 15.8917 13.025 15.025 13.725C14.1583 14.4083 13.4583 15.275 12.925 16.325Z" fill="#3B474F" style="fill:#3B474F;fill:color(display-p3 0.2314 0.2784 0.3098);fill-opacity:1;"/>
</svg>
