<svg width="94" height="32" viewBox="0 0 94 32" fill="none" xmlns="http://www.w3.org/2000/svg">
<g clip-path="url(#clip0_919_3110)">
<path d="M11.2655 9.77255C11.3736 9.83972 11.4547 9.92032 11.5088 10.0278C11.5629 10.1353 11.5493 10.2562 11.4818 10.3905L9.84636 12.7012C9.77878 12.8087 9.69768 12.8758 9.61659 12.8893C9.53549 12.9027 9.44088 12.8758 9.31924 12.8087C9.00838 12.5668 8.65697 12.3922 8.27853 12.2579C7.90009 12.1235 7.49461 12.0698 7.07562 12.0698C6.54851 12.0698 6.06194 12.1638 5.61592 12.3653C5.1699 12.5668 4.79145 12.8355 4.46707 13.1848C4.1427 13.5341 3.89941 13.9371 3.71019 14.3939C3.53448 14.8506 3.43987 15.3477 3.43987 15.8716C3.43987 16.3956 3.53448 16.8926 3.71019 17.3494C3.8859 17.8061 4.1427 18.2092 4.46707 18.545C4.79145 18.8809 5.1699 19.163 5.61592 19.3511C6.06194 19.5526 6.54851 19.6466 7.07562 19.6466C7.49461 19.6466 7.90009 19.5794 8.29204 19.4451C8.684 19.3108 9.03541 19.1361 9.34627 18.8943C9.46792 18.8271 9.56253 18.8003 9.63011 18.8137C9.7112 18.8271 9.77878 18.8809 9.85987 18.9883L11.5088 21.3527C11.5764 21.4871 11.5899 21.608 11.5358 21.702C11.4818 21.7961 11.4007 21.8767 11.2925 21.9438C10.6843 22.3469 10.0356 22.6558 9.33276 22.8842C8.62994 23.0992 7.90009 23.2201 7.12969 23.2201C6.44038 23.2201 5.79162 23.1395 5.1699 22.9648C4.54817 22.7902 3.95348 22.5484 3.41285 22.226C2.87221 21.9035 2.37213 21.5274 1.92611 21.0841C1.48009 20.6407 1.08813 20.1437 0.777267 19.6063C0.452888 19.0689 0.209604 18.4778 0.0338987 17.8599C-0.141806 17.2419 -0.2229 16.5836 -0.2229 15.9119C-0.2229 15.2402 -0.141806 14.582 0.0338987 13.964C0.209604 13.346 0.452888 12.7549 0.777267 12.2041C1.10165 11.6533 1.48009 11.1563 1.92611 10.7129C2.37213 10.2696 2.87221 9.88002 3.41285 9.57103C3.95348 9.24862 4.54817 9.0068 5.1699 8.83216C5.79162 8.65752 6.4539 8.56348 7.12969 8.56348C7.90009 8.56348 8.62994 8.67095 9.31924 8.8859C10.0085 9.06054 10.6573 9.36952 11.2655 9.77255Z" fill="#202A38" style="fill:#202A38;fill:color(display-p3 0.1255 0.1647 0.2196);fill-opacity:1;"/>
<path d="M17.2395 12.0697C17.3611 11.8951 17.5368 11.7204 17.7531 11.5323C17.9693 11.3577 18.2126 11.1965 18.4964 11.0621C18.7803 10.9278 19.0911 10.8069 19.429 10.7263C19.7669 10.6457 20.1318 10.5919 20.5103 10.5919C21.2401 10.5919 21.8754 10.7263 22.416 11.0084C22.9566 11.2905 23.4027 11.6667 23.7541 12.1637C24.1055 12.6474 24.3623 13.2116 24.538 13.8699C24.7137 14.5147 24.7948 15.2133 24.7948 15.9521V22.2527C24.7948 22.4945 24.7407 22.6826 24.6326 22.8035C24.5245 22.9244 24.3623 22.9916 24.119 22.9916H21.8889C21.6186 22.9916 21.4158 22.9513 21.3212 22.8573C21.2131 22.7632 21.1726 22.5886 21.1726 22.3199V15.979C21.1726 15.7103 21.1185 15.4417 21.0104 15.2133C20.9022 14.9715 20.7671 14.7699 20.5779 14.5953C20.4022 14.4207 20.1859 14.2863 19.9426 14.1788C19.6993 14.0848 19.4425 14.0311 19.1722 14.0311C18.9424 14.0311 18.7127 14.0714 18.4964 14.1654C18.2802 14.2595 18.0774 14.3938 17.9017 14.555C17.726 14.7296 17.5774 14.9312 17.4557 15.1595C17.3341 15.4013 17.2665 15.6566 17.253 15.9521V22.293C17.253 22.4005 17.2259 22.508 17.1854 22.6155C17.1448 22.7229 17.0773 22.8035 16.9962 22.8707C16.9151 22.9244 16.834 22.9513 16.7529 22.9782C16.6853 22.9916 16.5907 23.005 16.4961 23.005H14.32C14.0497 23.005 13.847 22.9379 13.7254 22.8035C13.6037 22.6692 13.5361 22.4945 13.5361 22.2662V14.4475V14.3804V11.5055V11.4517V7.90513C13.5361 7.69018 13.6037 7.51554 13.7254 7.3812C13.847 7.24686 14.0497 7.17969 14.32 7.17969H16.4961C16.6448 7.17969 16.807 7.23342 16.9827 7.32746C17.0638 7.3812 17.1313 7.4618 17.1719 7.58271C17.2124 7.69018 17.2395 7.79766 17.2395 7.89169V12.0697Z" fill="#202A38" style="fill:#202A38;fill:color(display-p3 0.1255 0.1647 0.2196);fill-opacity:1;"/>
<path d="M39.7299 22.2795C39.7299 22.3869 39.7164 22.4944 39.6758 22.5884C39.6353 22.6825 39.5677 22.7631 39.4866 22.8303C39.419 22.8974 39.3379 22.9512 39.2298 22.9646C39.1352 22.978 39.0541 22.9915 38.973 22.9915H37.0673C36.9321 22.9915 36.824 22.978 36.7429 22.9377C36.6618 22.8974 36.5942 22.8571 36.5402 22.79C36.4861 22.7228 36.4455 22.6422 36.405 22.5481C36.3645 22.4541 36.3374 22.3601 36.2969 22.2392L36.1752 21.8093C35.9995 21.9839 35.7968 22.1451 35.5805 22.3198C35.3643 22.481 35.1075 22.6287 34.8507 22.7631C34.5804 22.8974 34.2965 23.0049 33.9857 23.0855C33.6748 23.1661 33.3639 23.2064 33.0396 23.2064C32.4584 23.2064 31.8907 23.1392 31.3501 22.9915C30.8095 22.8437 30.3094 22.6287 29.8498 22.3601C29.3768 22.0914 28.9578 21.7555 28.5794 21.3794C28.2009 21.0032 27.8765 20.5733 27.5927 20.1031C27.3224 19.6329 27.1061 19.1359 26.9575 18.5851C26.8088 18.0477 26.7412 17.4835 26.7412 16.8924C26.7412 16.0057 26.9034 15.1728 27.2278 14.4071C27.5522 13.6413 27.9982 12.9831 28.5658 12.4054C29.1335 11.8412 29.7958 11.3978 30.5662 11.0754C31.3366 10.753 32.1475 10.5918 33.0261 10.5918C33.4315 10.5918 33.7964 10.6321 34.1479 10.7261C34.4858 10.8202 34.8101 10.9411 35.094 11.0889C35.3778 11.2366 35.6346 11.4247 35.8779 11.6397C36.1076 11.8546 36.3104 12.083 36.4861 12.3382L36.7699 11.465C36.8375 11.3038 36.8916 11.1695 36.9321 11.0754C36.9727 10.9814 37.0132 10.9008 37.0673 10.8605C37.1213 10.8067 37.1754 10.7799 37.243 10.7664C37.3106 10.753 37.4187 10.7396 37.5403 10.7396H38.973C39.0406 10.7396 39.1217 10.753 39.2298 10.7664C39.3244 10.7799 39.4055 10.8336 39.4866 10.9008C39.5812 10.968 39.6353 11.0486 39.6758 11.1426C39.7164 11.2366 39.7299 11.3307 39.7299 11.4516V22.2795ZM30.2148 16.9058C30.2148 17.3223 30.2823 17.7253 30.4175 18.088C30.5527 18.4507 30.7419 18.7732 30.9852 19.0418C31.2284 19.3105 31.5258 19.5255 31.8637 19.6867C32.2016 19.8479 32.5935 19.9285 33.0125 19.9285C33.445 19.9285 33.8505 19.8479 34.2154 19.6867C34.5804 19.5255 34.9047 19.324 35.1751 19.0418C35.4454 18.7732 35.6616 18.4507 35.8238 18.088C35.9725 17.7253 36.0536 17.3223 36.0536 16.9058C36.0536 16.5028 35.9725 16.0998 35.8238 15.7371C35.6751 15.3609 35.4589 15.0385 35.1751 14.7564C34.9047 14.4743 34.5804 14.2459 34.2154 14.0847C33.8505 13.9235 33.445 13.8428 33.0125 13.8428C32.5935 13.8428 32.2151 13.9235 31.8637 14.0847C31.5258 14.2459 31.2284 14.4743 30.9852 14.7564C30.7419 15.0385 30.5527 15.3609 30.4175 15.7371C30.2823 16.0998 30.2148 16.4894 30.2148 16.9058Z" fill="#202A38" style="fill:#202A38;fill:color(display-p3 0.1255 0.1647 0.2196);fill-opacity:1;"/>
<path d="M42.7842 8.89841C42.7842 8.6969 42.8518 8.54912 42.987 8.45509C43.1221 8.36105 43.3114 8.26701 43.5546 8.17297L45.7442 7.42066C45.7712 7.42066 45.8118 7.40723 45.8388 7.40723C45.8658 7.40723 45.8929 7.40723 45.9199 7.40723C46.1632 7.40723 46.3119 7.4744 46.393 7.60874C46.474 7.74308 46.5146 7.93116 46.5146 8.1461L46.5011 10.7926H47.8256C48.0284 10.7926 48.2041 10.8598 48.3257 10.9807C48.4609 11.1016 48.5149 11.2897 48.5149 11.5315V13.3854C48.5149 13.6541 48.4474 13.8556 48.3257 13.9765C48.1906 14.0974 48.0284 14.1646 47.8256 14.1646H46.5011L46.5146 22.2653C46.5146 22.5071 46.447 22.6952 46.2983 22.8161C46.1632 22.937 45.9605 23.0042 45.7037 23.0042H43.5141C43.014 23.0042 42.7707 22.7624 42.7707 22.2653L42.7572 14.1646H41.757C41.257 14.1646 41.0137 13.9093 41.0137 13.3854V11.5181C41.0137 11.0344 41.257 10.7926 41.757 10.7926H42.7572L42.7842 8.89841Z" fill="#202A38" style="fill:#202A38;fill:color(display-p3 0.1255 0.1647 0.2196);fill-opacity:1;"/>
<path d="M49.5962 16.9053C49.5962 16.3142 49.6773 15.75 49.826 15.2126C49.9746 14.6753 50.1909 14.1648 50.4612 13.6946C50.7315 13.2244 51.0694 12.8079 51.4479 12.4318C51.8263 12.0556 52.2588 11.7198 52.7319 11.4511C53.2049 11.1824 53.705 10.9809 54.2591 10.8331C54.7998 10.6853 55.3674 10.6182 55.9621 10.6182C56.8407 10.6182 57.6651 10.7794 58.4355 11.1018C59.2059 11.4242 59.8682 11.8675 60.4494 12.4318C61.017 12.996 61.4766 13.6677 61.8009 14.4334C62.1388 15.1992 62.301 16.0321 62.301 16.9188C62.301 17.5099 62.2199 18.0741 62.0713 18.6115C61.9226 19.1488 61.7063 19.6593 61.436 20.1295C61.1657 20.5997 60.8278 21.0162 60.4494 21.4057C60.0709 21.7819 59.6384 22.1178 59.1654 22.3864C58.6923 22.6551 58.1922 22.8701 57.6516 23.0178C57.111 23.1656 56.5568 23.2328 55.9621 23.2328C55.3674 23.2328 54.7998 23.1656 54.2591 23.0178C53.7185 22.8701 53.2049 22.6551 52.7319 22.3864C52.2588 22.1178 51.8398 21.7819 51.4479 21.4057C51.0694 21.0296 50.7315 20.5997 50.4612 20.1295C50.1909 19.6593 49.9746 19.1622 49.826 18.6115C49.6773 18.0472 49.5962 17.483 49.5962 16.9053ZM53.1238 16.9053C53.1238 17.3218 53.1914 17.7248 53.3266 18.0875C53.4617 18.4502 53.6509 18.7727 53.8807 19.0413C54.124 19.31 54.4213 19.525 54.7592 19.6862C55.0971 19.8474 55.4891 19.928 55.9216 19.928C56.3406 19.928 56.719 19.8474 57.0569 19.6862C57.3948 19.525 57.6786 19.3235 57.9219 19.0413C58.1517 18.7727 58.3409 18.4502 58.4626 18.0875C58.5842 17.7248 58.6518 17.3218 58.6518 16.9053C58.6518 16.5023 58.5842 16.0993 58.4626 15.7366C58.3409 15.3604 58.1517 15.038 57.9219 14.7559C57.6922 14.4737 57.3948 14.2454 57.0569 14.0842C56.719 13.923 56.3406 13.8423 55.9216 13.8423C55.4891 13.8423 55.0971 13.923 54.7592 14.0842C54.4213 14.2454 54.124 14.4737 53.8807 14.7559C53.6374 15.038 53.4482 15.3604 53.3266 15.7366C53.1914 16.0993 53.1238 16.4889 53.1238 16.9053Z" fill="#202A38" style="fill:#202A38;fill:color(display-p3 0.1255 0.1647 0.2196);fill-opacity:1;"/>
<path d="M66.0315 19.1889C66.2072 19.3635 66.3964 19.5113 66.5992 19.6322C66.8019 19.7531 66.9911 19.8472 67.1803 19.9143C67.3696 19.9815 67.5318 20.0352 67.6669 20.0755C67.8021 20.1024 67.9102 20.1293 67.9507 20.1293C68.0724 20.1293 68.2346 20.1293 68.4238 20.1158C68.613 20.1024 68.8022 20.0755 68.9644 20.0352C69.1266 19.9949 69.2888 19.9143 69.4105 19.7934C69.5321 19.686 69.5997 19.5247 69.5997 19.3367C69.5997 19.162 69.5591 19.0143 69.4915 18.9068C69.424 18.7993 69.3158 18.7053 69.1807 18.6381C69.0455 18.5709 68.8833 18.5038 68.6806 18.4366C68.4779 18.3694 68.2616 18.3157 68.0183 18.2351C67.2479 18.0336 66.6127 17.7783 66.1126 17.4962C65.6125 17.2141 65.207 16.8917 64.9232 16.5289C64.6259 16.1797 64.4231 15.7901 64.315 15.3871C64.1934 14.984 64.1393 14.5407 64.1393 14.0974C64.1393 13.56 64.2474 13.0764 64.4637 12.6465C64.6799 12.2166 64.9773 11.8405 65.3692 11.5315C65.7612 11.2225 66.2342 10.9807 66.7749 10.806C67.3155 10.6314 67.9372 10.5508 68.5995 10.5508C69.005 10.5508 69.3834 10.5911 69.7348 10.6583C70.0862 10.7254 70.4241 10.8329 70.7485 10.9807C71.0729 11.1284 71.3838 11.3165 71.6946 11.5315C72.0055 11.7598 72.3028 12.0285 72.6137 12.3375C72.7218 12.4719 72.7759 12.5793 72.7894 12.7002C72.7894 12.8077 72.7218 12.9286 72.5731 13.063C72.3163 13.2645 72.0866 13.466 71.8568 13.6675C71.627 13.869 71.3973 14.0839 71.1405 14.3258C71.0594 14.3929 70.9918 14.4332 70.9107 14.4467C70.8296 14.4601 70.762 14.4601 70.6945 14.4467C70.6269 14.4332 70.5593 14.3929 70.4917 14.3526C70.4241 14.3123 70.3701 14.2586 70.316 14.1914C70.0862 13.9362 69.8294 13.775 69.5456 13.6809C69.2618 13.6003 68.9915 13.5466 68.7347 13.5466C68.4238 13.5466 68.167 13.6003 67.9778 13.7078C67.7886 13.8153 67.7075 13.9765 67.721 14.2049C67.7345 14.3661 67.8021 14.5004 67.9102 14.5944C68.0183 14.6885 68.167 14.7691 68.3292 14.8228C68.4914 14.8766 68.6671 14.9303 68.8563 14.9572C69.0455 14.9975 69.2077 15.0378 69.3699 15.0781C69.9511 15.2661 70.4782 15.4677 70.9648 15.6826C71.4513 15.8975 71.8703 16.1662 72.2217 16.4886C72.5731 16.8111 72.857 17.1872 73.0462 17.6305C73.2489 18.0739 73.3435 18.6112 73.3435 19.2426C73.3435 19.874 73.2219 20.4383 72.9651 20.9353C72.7083 21.4324 72.3569 21.8488 71.9109 22.1981C71.4649 22.534 70.9377 22.8027 70.3295 22.9773C69.7213 23.152 69.059 23.246 68.3697 23.246C67.9643 23.246 67.5588 23.2057 67.1533 23.1385C66.7478 23.0713 66.3424 22.9504 65.9504 22.8027C65.5584 22.6415 65.1935 22.4399 64.8556 22.1981C64.5042 21.9563 64.1934 21.6473 63.923 21.298C63.8555 21.204 63.8014 21.11 63.7608 21.0159C63.7203 20.9219 63.7068 20.8144 63.7068 20.7204C63.7068 20.6263 63.7338 20.5323 63.7608 20.4517C63.8014 20.3711 63.8555 20.3039 63.923 20.2502L65.1665 19.0143C65.3152 18.8799 65.4638 18.8396 65.572 18.8799C65.6936 18.9068 65.8423 19.0143 66.0315 19.1889Z" fill="#202A38" style="fill:#202A38;fill:color(display-p3 0.1255 0.1647 0.2196);fill-opacity:1;"/>
<path d="M79.0879 12.0697C79.2095 11.8951 79.3852 11.7204 79.6014 11.5323C79.8177 11.3577 80.061 11.1965 80.3448 11.0621C80.6287 10.9278 80.9395 10.8069 81.2774 10.7263C81.6153 10.6457 81.9802 10.5919 82.3587 10.5919C83.0885 10.5919 83.7238 10.7263 84.2644 11.0084C84.805 11.2905 85.2511 11.6667 85.6025 12.1637C85.9539 12.6474 86.2107 13.2116 86.3864 13.8699C86.5621 14.5147 86.6432 15.2133 86.6432 15.9521V22.2527C86.6432 22.4945 86.5891 22.6826 86.481 22.8035C86.3729 22.9244 86.2107 22.9916 85.9674 22.9916H83.7373C83.467 22.9916 83.2642 22.9513 83.1696 22.8573C83.0615 22.7632 83.0209 22.5886 83.0209 22.3199V15.979C83.0209 15.7103 82.9669 15.4417 82.8588 15.2133C82.7506 14.9715 82.6155 14.7699 82.4263 14.5953C82.2505 14.4207 82.0343 14.2863 81.791 14.1788C81.5477 14.0848 81.2909 14.0311 81.0206 14.0311C80.7908 14.0311 80.5611 14.0714 80.3448 14.1654C80.1286 14.2595 79.9258 14.3938 79.7501 14.555C79.5744 14.7296 79.4257 14.9312 79.3041 15.1595C79.1825 15.4013 79.1149 15.6566 79.1014 15.9521V22.293C79.1014 22.4005 79.0743 22.508 79.0338 22.6155C78.9932 22.7229 78.9257 22.8035 78.8446 22.8707C78.7635 22.9244 78.6824 22.9513 78.6013 22.9782C78.5337 22.9916 78.4391 23.005 78.3445 23.005H76.1684C75.8981 23.005 75.6954 22.9379 75.5737 22.8035C75.4521 22.6692 75.3845 22.4945 75.3845 22.2662V14.4475V14.3804V11.5055V11.4517V7.90513C75.3845 7.69018 75.4521 7.51554 75.5737 7.3812C75.6954 7.24686 75.8981 7.17969 76.1684 7.17969H78.3445C78.4932 7.17969 78.6553 7.23342 78.831 7.32746C78.9121 7.3812 78.9797 7.4618 79.0203 7.58271C79.0608 7.69018 79.0879 7.79766 79.0879 7.89169V12.0697Z" fill="#202A38" style="fill:#202A38;fill:color(display-p3 0.1255 0.1647 0.2196);fill-opacity:1;"/>
<path d="M88.9408 6.68223C88.9408 6.41355 88.9948 6.22548 89.1165 6.10457C89.2381 5.9971 89.4138 5.94336 89.6571 5.94336H91.9007C92.1305 5.94336 92.3062 5.9971 92.4414 6.10457C92.5765 6.21204 92.6441 6.41355 92.6441 6.68223V8.54957C92.6441 8.63018 92.6306 8.71078 92.59 8.80482C92.5495 8.89886 92.5089 8.97946 92.4414 9.06007C92.3738 9.14067 92.2927 9.20784 92.1981 9.26158C92.1035 9.31532 91.9953 9.34218 91.8872 9.34218H89.6436C89.1705 9.34218 88.9272 9.0735 88.9272 8.54957V6.68223H88.9408ZM88.9408 11.5454C88.9408 11.3439 88.9948 11.1692 89.1165 11.0214C89.2381 10.8737 89.4138 10.8065 89.6571 10.8065H91.8737C91.9548 10.8065 92.0359 10.8199 92.1305 10.8602C92.2251 10.9005 92.3062 10.9408 92.3873 11.008C92.4684 11.0752 92.536 11.1558 92.59 11.2498C92.6441 11.3439 92.6711 11.4379 92.6711 11.5588V22.2523C92.6711 22.4942 92.6035 22.6822 92.4684 22.8031C92.3332 22.924 92.144 22.9912 91.8872 22.9912H89.6706C89.1976 22.9912 88.9543 22.7494 88.9543 22.2523V11.5454H88.9408Z" fill="#202A38" style="fill:#202A38;fill:color(display-p3 0.1255 0.1647 0.2196);fill-opacity:1;"/>
</g>
<defs>
<clipPath id="clip0_919_3110">
<rect width="94" height="32" fill="white" style="fill:white;fill-opacity:1;"/>
</clipPath>
</defs>
</svg>
