<svg xmlns="http://www.w3.org/2000/svg" width="24" height="24" viewBox="748 36 20 20" fill="none">
  <path d="M760.173 48.1733C758.022 50.3242 758 55.6533 758 55.6533C758 55.6533 757.978 50.3242 755.827 48.1733C753.676 46.0224 748.347 46.0005 748.347 46.0005C748.347 46.0005 753.676 45.9786 755.827 43.8277C757.978 41.6767 758 36.3477 758 36.3477C758 36.3477 758.022 41.6767 760.173 43.8277C762.324 45.9786 767.653 46.0005 767.653 46.0005C767.653 46.0005 762.324 46.0224 760.173 48.1733Z" stroke="currentColor" stroke-width="1.3" stroke-linejoin="round"/>
  <path d="M751.423 39.9495L751.011 41.2037C750.928 41.456 750.572 41.456 750.489 41.2037L750.077 39.9495C749.995 39.7002 749.8 39.5046 749.551 39.4228L748.296 39.0113C748.044 38.9285 748.044 38.5715 748.296 38.4887L749.551 38.0772C749.8 37.9954 749.995 37.7998 750.077 37.5505L750.489 36.2963C750.572 36.044 750.928 36.044 751.011 36.2963L751.423 37.5505C751.505 37.7998 751.7 37.9954 751.949 38.0772L753.204 38.4887C753.456 38.5715 753.456 38.9285 753.204 39.0113L751.949 39.4228C751.7 39.5046 751.505 39.7002 751.423 39.9495Z" fill="currentColor"/>
  <path d="M765.923 54.4495L765.511 55.7037C765.428 55.956 765.072 55.956 764.989 55.7037L764.577 54.4495C764.495 54.2002 764.3 54.0046 764.051 53.9228L762.796 53.5113C762.544 53.4285 762.544 53.0715 762.796 52.9887L764.051 52.5772C764.3 52.4954 764.495 52.2998 764.577 52.0505L764.989 50.7963C765.072 50.544 765.428 50.544 765.511 50.7963L765.923 52.0505C766.005 52.2998 766.2 52.4954 766.449 52.5772L767.704 52.9887C767.956 53.0715 767.956 53.4285 767.704 53.5113L766.449 53.9228C766.2 54.0046 766.005 54.2002 765.923 54.4495Z" fill="currentColor"/>
</svg>
