<svg xmlns="http://www.w3.org/2000/svg" width="24" height="24" viewBox="11 11 26 26" fill="none">
  <path d="M30.3923 16.7705C30.5484 16.3572 31.0102 16.1486 31.4236 16.3047C31.8365 16.4609 32.0451 16.9219 31.8894 17.335C30.7198 20.4324 29.8333 22.6592 29.238 23.9991C29.845 25.3537 30.7313 27.5814 31.8894 30.6661C32.0447 31.0797 31.8353 31.541 31.4216 31.6963C31.008 31.8516 30.5466 31.6422 30.3914 31.2286C29.5463 28.9776 28.8539 27.2072 28.3162 25.9092C27.4583 27.5512 26.579 28.8567 25.6335 29.8116C24.3835 31.074 22.9955 31.7481 21.4138 31.7481C18.0819 31.7479 15.0564 28.49 15.0564 24C15.0565 19.5101 18.0819 16.2532 21.4138 16.253C22.9925 16.253 24.3844 16.9548 25.6326 18.2217C26.5762 19.1795 27.4563 20.4787 28.3093 22.0928C28.8438 20.7985 29.5401 19.0275 30.3923 16.7705ZM16.656 24C16.656 27.8466 19.188 30.1473 21.4138 30.1475C22.4803 30.1475 23.4791 29.7144 24.4968 28.6866C25.4836 27.69 26.4581 26.1565 27.4744 24.001C26.4662 21.8866 25.4859 20.3526 24.4929 19.3448C23.4635 18.3 22.46 17.8526 21.4138 17.8526C19.188 17.8528 16.6561 20.1536 16.656 24Z" fill="currentColor"/>
</svg>
