<svg width="297" height="48" viewBox="0 0 297 48" fill="none" xmlns="http://www.w3.org/2000/svg">
<rect width="297" height="48" fill="#252525" style="fill:#252525;fill:color(display-p3 0.1431 0.1431 0.1431);fill-opacity:1;"/>
<g id="Nav Bar">
<path d="M-56 -294C-56 -307.255 -45.2548 -318 -32 -318H1368C1381.25 -318 1392 -307.255 1392 -294V842C1392 855.255 1381.25 866 1368 866H-32C-45.2549 866 -56 855.255 -56 842V-294Z" fill="#FCFDFD" style="fill:#FCFDFD;fill:color(display-p3 0.9882 0.9922 0.9922);fill-opacity:1;"/>
<g id="Component">
<g id="&#226;&#151;&#143;navBar">
<rect x="-31.5" y="-179.5" width="1399" height="1021" rx="4.5" stroke="#9747FF" style="stroke:#9747FF;stroke:color(display-p3 0.5922 0.2784 1.0000);stroke-opacity:1;" stroke-dasharray="10 5"/>
<g id="isGuest=False, hasHistory=True, isFolded=False">
<mask id="path-3-inside-1_881_20430" fill="white">
<path d="M-12 -160H310V822H-12V-160Z"/>
</mask>
<path d="M-12 -160H310V822H-12V-160Z" fill="#FEFEFE" style="fill:#FEFEFE;fill:color(display-p3 0.9961 0.9961 0.9961);fill-opacity:1;"/>
<path d="M310 -160H309V822H310H311V-160H310Z" fill="#DADFE3" style="fill:#DADFE3;fill:color(display-p3 0.8549 0.8745 0.8902);fill-opacity:1;" mask="url(#path-3-inside-1_881_20430)"/>
<g id="Top">
<g id="Menu">
<g id="Menu Item">
<g id="Base">
<g id="iconBackground">
<path d="M4 16C4 9.37258 9.37258 4 16 4H32C38.6274 4 44 9.37258 44 16V32C44 38.6274 38.6274 44 32 44H16C9.37258 44 4 38.6274 4 32V16Z" fill="#EBEEF0" style="fill:#EBEEF0;fill:color(display-p3 0.9216 0.9333 0.9412);fill-opacity:1;"/>
<g id="icons/Alpha">
<path id="icon" d="M30.3923 16.7705C30.5484 16.3572 31.0102 16.1486 31.4236 16.3047C31.8365 16.4609 32.0451 16.9219 31.8894 17.335C30.7198 20.4324 29.8333 22.6592 29.238 23.9991C29.845 25.3537 30.7313 27.5814 31.8894 30.6661C32.0447 31.0797 31.8353 31.541 31.4216 31.6963C31.008 31.8516 30.5466 31.6422 30.3914 31.2286C29.5463 28.9776 28.8539 27.2072 28.3162 25.9092C27.4583 27.5512 26.579 28.8567 25.6335 29.8116C24.3835 31.074 22.9955 31.7481 21.4138 31.7481C18.0819 31.7479 15.0564 28.49 15.0564 24C15.0565 19.5101 18.0819 16.2532 21.4138 16.253C22.9925 16.253 24.3844 16.9548 25.6326 18.2217C26.5762 19.1795 27.4563 20.4787 28.3093 22.0928C28.8438 20.7985 29.5401 19.0275 30.3923 16.7705ZM16.656 24C16.656 27.8466 19.188 30.1473 21.4138 30.1475C22.4803 30.1475 23.4791 29.7144 24.4968 28.6866C25.4836 27.69 26.4581 26.1565 27.4744 24.001C26.4662 21.8866 25.4859 20.3526 24.4929 19.3448C23.4635 18.3 22.46 17.8526 21.4138 17.8526C19.188 17.8528 16.6561 20.1536 16.656 24Z" fill="#252D32" style="fill:#252D32;fill:color(display-p3 0.1451 0.1765 0.1961);fill-opacity:1;"/>
</g>
</g>
<g id="Text Section">
<path id="Item" d="M53.8864 30H52.4091L56.6818 18.3636H58.1364L62.4091 30H60.9318L57.4545 20.2045H57.3636L53.8864 30ZM54.4318 25.4545H60.3864V26.7045H54.4318V25.4545ZM65.3807 18.3636V30H64.0398V18.3636H65.3807ZM67.8366 33.2727V21.2727H69.1321V22.6591H69.2912C69.3897 22.5076 69.526 22.3144 69.7003 22.0795C69.8783 21.8409 70.1321 21.6288 70.4616 21.4432C70.795 21.2538 71.2457 21.1591 71.8139 21.1591C72.5488 21.1591 73.1965 21.3428 73.7571 21.7102C74.3177 22.0777 74.7552 22.5985 75.0696 23.2727C75.384 23.947 75.5412 24.7424 75.5412 25.6591C75.5412 26.5833 75.384 27.3845 75.0696 28.0625C74.7552 28.7367 74.3196 29.2595 73.7628 29.6307C73.206 29.9981 72.5639 30.1818 71.8366 30.1818C71.276 30.1818 70.8272 30.089 70.4901 29.9034C70.1529 29.714 69.8935 29.5 69.7116 29.2614C69.5298 29.0189 69.3897 28.8182 69.2912 28.6591H69.1776V33.2727H67.8366ZM69.1548 25.6364C69.1548 26.2955 69.2514 26.8769 69.4446 27.3807C69.6378 27.8807 69.92 28.2727 70.2912 28.5568C70.6624 28.8371 71.117 28.9773 71.6548 28.9773C72.2154 28.9773 72.6832 28.8295 73.0582 28.5341C73.437 28.2348 73.7211 27.8333 73.9105 27.3295C74.1037 26.822 74.2003 26.2576 74.2003 25.6364C74.2003 25.0227 74.1056 24.4697 73.9162 23.9773C73.7306 23.4811 73.4484 23.089 73.0696 22.8011C72.6946 22.5095 72.223 22.3636 71.6548 22.3636C71.1094 22.3636 70.651 22.5019 70.2798 22.7784C69.9086 23.0511 69.6283 23.4337 69.4389 23.9261C69.2495 24.4148 69.1548 24.9848 69.1548 25.6364ZM78.9276 24.75V30H77.5866V18.3636H78.9276V22.6364H79.0412C79.2457 22.1856 79.5526 21.8277 79.9616 21.5625C80.3745 21.2936 80.9238 21.1591 81.6094 21.1591C82.2041 21.1591 82.7249 21.2784 83.1719 21.517C83.6188 21.7519 83.9654 22.1136 84.2116 22.6023C84.4616 23.0871 84.5866 23.7045 84.5866 24.4545V30H83.2457V24.5455C83.2457 23.8523 83.0658 23.3163 82.706 22.9375C82.3499 22.5549 81.8556 22.3636 81.223 22.3636C80.7836 22.3636 80.3897 22.4564 80.0412 22.642C79.6965 22.8277 79.4238 23.0985 79.223 23.4545C79.026 23.8106 78.9276 24.2424 78.9276 24.75ZM89.608 30.2045C89.0549 30.2045 88.553 30.1004 88.1023 29.892C87.6515 29.6799 87.2936 29.375 87.0284 28.9773C86.7633 28.5758 86.6307 28.0909 86.6307 27.5227C86.6307 27.0227 86.7292 26.6174 86.9261 26.3068C87.1231 25.9924 87.3864 25.7462 87.7159 25.5682C88.0455 25.3902 88.4091 25.2576 88.8068 25.1705C89.2083 25.0795 89.6117 25.0076 90.017 24.9545C90.5473 24.8864 90.9773 24.8352 91.3068 24.8011C91.6402 24.7633 91.8826 24.7008 92.0341 24.6136C92.1894 24.5265 92.267 24.375 92.267 24.1591V24.1136C92.267 23.553 92.1136 23.1174 91.8068 22.8068C91.5038 22.4962 91.0436 22.3409 90.4261 22.3409C89.786 22.3409 89.2841 22.4811 88.9205 22.7614C88.5568 23.0417 88.3011 23.3409 88.1534 23.6591L86.8807 23.2045C87.108 22.6742 87.411 22.2614 87.7898 21.9659C88.1723 21.6667 88.589 21.4583 89.0398 21.3409C89.4943 21.2197 89.9413 21.1591 90.3807 21.1591C90.661 21.1591 90.983 21.1932 91.3466 21.2614C91.714 21.3258 92.0682 21.4602 92.4091 21.6648C92.7538 21.8693 93.0398 22.178 93.267 22.5909C93.4943 23.0038 93.608 23.5568 93.608 24.25V30H92.267V28.8182H92.1989C92.108 29.0076 91.9564 29.2102 91.7443 29.4261C91.5322 29.642 91.25 29.8258 90.8977 29.9773C90.5455 30.1288 90.1155 30.2045 89.608 30.2045ZM89.8125 29C90.3428 29 90.7898 28.8958 91.1534 28.6875C91.5208 28.4792 91.7973 28.2102 91.983 27.8807C92.1723 27.5511 92.267 27.2045 92.267 26.8409V25.6136C92.2102 25.6818 92.0852 25.7443 91.892 25.8011C91.7027 25.8542 91.483 25.9015 91.233 25.9432C90.9867 25.9811 90.7462 26.0152 90.5114 26.0455C90.2803 26.072 90.0928 26.0947 89.9489 26.1136C89.6004 26.1591 89.2746 26.233 88.9716 26.3352C88.6723 26.4337 88.4299 26.5833 88.2443 26.7841C88.0625 26.9811 87.9716 27.25 87.9716 27.5909C87.9716 28.0568 88.1439 28.4091 88.4886 28.6477C88.8371 28.8826 89.2784 29 89.8125 29Z" fill="#252D32" style="fill:#252D32;fill:color(display-p3 0.1451 0.1765 0.1961);fill-opacity:1;"/>
</g>
</g>
</g>
</g>
</g>
</g>
</g>
</g>
</g>
</svg>
