<svg xmlns="http://www.w3.org/2000/svg" width="24" height="24" viewBox="8 9 24 22" fill="none">
  <path d="M11.3516 26.2285C11.7274 26.2285 12.0374 26.5055 12.0918 26.8662C12.107 26.877 12.1221 26.8883 12.1367 26.9004C12.456 27.1642 12.5011 27.6368 12.2373 27.9561L11.9297 28.3291C11.7282 28.5729 11.3953 28.6637 11.0977 28.5566C10.8002 28.4496 10.6017 28.1677 10.6016 27.8516V26.9785C10.6018 26.5645 10.9375 26.2285 11.3516 26.2285ZM14.0576 24.8662C14.4717 24.8664 14.8076 25.2021 14.8076 25.6162C14.8075 26.0303 14.4716 26.366 14.0576 26.3662H13.5518L13.4688 26.4668C13.2048 26.7858 12.7323 26.8302 12.4131 26.5664C12.0939 26.3025 12.0487 25.83 12.3125 25.5107L12.6201 25.1387L12.6768 25.0771C12.8158 24.9425 13.0026 24.8663 13.1982 24.8662H14.0576ZM19.21 24.8662C19.6241 24.8663 19.96 25.202 19.96 25.6162C19.9599 26.0303 19.6241 26.3662 19.21 26.3662H17.4922C17.0781 26.3661 16.7423 26.0303 16.7422 25.6162C16.7422 25.202 17.078 24.8663 17.4922 24.8662H19.21ZM24.3623 24.8662L24.4395 24.8701C24.8175 24.9087 25.1123 25.228 25.1123 25.6162C25.1122 26.0044 24.8174 26.3238 24.4395 26.3623L24.3623 26.3662H22.6445C22.2305 26.366 21.8946 26.0302 21.8945 25.6162C21.8945 25.2021 22.2305 24.8664 22.6445 24.8662H24.3623ZM28.6562 24.1182C29.0705 24.1182 29.4062 24.4539 29.4062 24.8682V25.6162C29.4062 26.0304 29.0704 26.3662 28.6562 26.3662H27.7979C27.3837 26.3662 27.0479 26.0304 27.0479 25.6162C27.0479 25.202 27.3836 24.8662 27.7979 24.8662H27.9062C27.9072 24.4528 28.2426 24.1182 28.6562 24.1182ZM10.6016 23.4893V21.7451C10.6016 21.3309 10.9373 20.9951 11.3516 20.9951C11.7658 20.9951 12.1016 21.3309 12.1016 21.7451V23.4893C12.1016 23.9035 11.7658 24.2393 11.3516 24.2393C10.9373 24.2393 10.6016 23.9035 10.6016 23.4893ZM27.9062 21.875V20.3789C27.9063 19.9648 28.2421 19.6289 28.6562 19.6289C29.0704 19.6289 29.4062 19.9648 29.4062 20.3789V21.875C29.4062 22.2892 29.0705 22.625 28.6562 22.625C28.242 22.625 27.9062 22.2892 27.9062 21.875ZM10.6016 18.2559V16.5107C10.6017 16.0967 10.9374 15.7607 11.3516 15.7607C11.7657 15.7607 12.1014 16.0967 12.1016 16.5107V18.2559C12.1015 18.67 11.7657 19.0059 11.3516 19.0059C10.9374 19.0059 10.6017 18.67 10.6016 18.2559ZM27.9062 17.3867V15.8906C27.9062 15.4764 28.242 15.1406 28.6562 15.1406C29.0705 15.1406 29.4062 15.4764 29.4062 15.8906V17.3867C29.4061 17.8008 29.0704 18.1367 28.6562 18.1367C28.2421 18.1367 27.9064 17.8008 27.9062 17.3867ZM10.6016 13.0215V12.1494C10.6016 11.7352 10.9373 11.3994 11.3516 11.3994H12.0723C12.4865 11.3994 12.8223 11.7352 12.8223 12.1494C12.8223 12.5539 12.5023 12.8822 12.1016 12.8975V13.0215C12.1016 13.4357 11.7658 13.7715 11.3516 13.7715C10.9373 13.7715 10.6016 13.4357 10.6016 13.0215ZM28.6562 11.3994C29.0705 11.3994 29.4062 11.7352 29.4062 12.1494V12.8975C29.4062 13.3117 29.0705 13.6475 28.6562 13.6475C28.242 13.6475 27.9062 13.3117 27.9062 12.8975C27.5055 12.8822 27.1855 12.5539 27.1855 12.1494C27.1855 11.7352 27.5213 11.3994 27.9355 11.3994H28.6562ZM16.3984 11.3994C16.8127 11.3994 17.1484 11.7352 17.1484 12.1494C17.1484 12.5636 16.8127 12.8994 16.3984 12.8994H14.957C14.5428 12.8994 14.207 12.5636 14.207 12.1494C14.207 11.7352 14.5428 11.3994 14.957 11.3994H16.3984ZM20.7246 11.3994C21.1388 11.3994 21.4746 11.7352 21.4746 12.1494C21.4746 12.5636 21.1388 12.8994 20.7246 12.8994H19.2832C18.869 12.8994 18.5332 12.5636 18.5332 12.1494C18.5332 11.7352 18.869 11.3994 19.2832 11.3994H20.7246ZM25.0508 11.3994C25.465 11.3994 25.8008 11.7352 25.8008 12.1494C25.8008 12.5636 25.465 12.8994 25.0508 12.8994H23.6094C23.1952 12.8994 22.8594 12.5636 22.8594 12.1494C22.8594 11.7352 23.1952 11.3994 23.6094 11.3994H25.0508Z" fill="currentColor"/>
</svg>
