<svg width="804" height="92" viewBox="0 0 804 92" fill="none" xmlns="http://www.w3.org/2000/svg">
<rect width="804" height="92" fill="#252525" style="fill:#252525;fill:color(display-p3 0.1431 0.1431 0.1431);fill-opacity:1;"/>
<g id="Flow to build">
<path d="M-715 -836C-715 -837.105 -714.105 -838 -713 -838H35314C35315.1 -838 35316 -837.105 35316 -836V2621C35316 2622.1 35315.1 2623 35314 2623H-713.001C-714.105 2623 -715 2622.1 -715 2621V-836Z" fill="#B3B3B3" style="fill:#B3B3B3;fill:color(display-p3 0.7020 0.7020 0.7020);fill-opacity:1;"/>
<path d="M-713 -838V-837H35314V-838V-839H-713V-838ZM35316 -836H35315V2621H35316H35317V-836H35316ZM35314 2623V2622H-713.001V2623V2624H35314V2623ZM-715 2621H-714V-836H-715H-716V2621H-715ZM-713.001 2623V2622C-713.552 2622 -714 2621.55 -714 2621H-715H-716C-716 2622.66 -714.658 2624 -713.001 2624V2623ZM35316 2621H35315C35315 2621.55 35314.6 2622 35314 2622V2623V2624C35315.7 2624 35317 2622.66 35317 2621H35316ZM35314 -838V-837C35314.6 -837 35315 -836.553 35315 -836H35316H35317C35317 -837.656 35315.7 -839 35314 -839V-838ZM-713 -838V-839C-714.657 -839 -716 -837.657 -716 -836H-715H-714C-714 -836.552 -713.552 -837 -713 -837V-838Z" fill="white" fill-opacity="0.1" style="fill:white;fill-opacity:0.1;"/>
<g id="Main Screen">
<path d="M-615 -736C-615 -737.105 -614.105 -738 -613 -738H1095C1096.1 -738 1097 -737.105 1097 -736V442C1097 443.105 1096.1 444 1095 444H-613C-614.105 444 -615 443.105 -615 442V-736Z" fill="#444444" style="fill:#444444;fill:color(display-p3 0.2667 0.2667 0.2667);fill-opacity:1;"/>
<path d="M-613 -738V-737H1095V-738V-739H-613V-738ZM1097 -736H1096V442H1097H1098V-736H1097ZM1095 444V443H-613V444V445H1095V444ZM-615 442H-614V-736H-615H-616V442H-615ZM-613 444V443C-613.552 443 -614 442.552 -614 442H-615H-616C-616 443.657 -614.657 445 -613 445V444ZM1097 442H1096C1096 442.552 1095.55 443 1095 443V444V445C1096.66 445 1098 443.657 1098 442H1097ZM1095 -738V-737C1095.55 -737 1096 -736.552 1096 -736H1097H1098C1098 -737.657 1096.66 -739 1095 -739V-738ZM-613 -738V-739C-614.657 -739 -616 -737.657 -616 -736H-615H-614C-614 -736.552 -613.552 -737 -613 -737V-738Z" fill="white" fill-opacity="0.1" style="fill:white;fill-opacity:0.1;"/>
<g id="Chat [Authoprized]">
<g id="Horizontal Container">
<rect width="1190" height="982" transform="translate(-193 -638)" fill="url(#paint0_linear_881_20430)"/>
<g id="Vertical Container">
<g id="Home">
<g id="PromptInput">
<g id="promptField" filter="url(#filter0_d_881_20430)">
<path d="M22 34C22 27.3726 27.3726 22 34 22H770C776.627 22 782 27.3726 782 34V58C782 64.6274 776.627 70 770 70H34C27.3726 70 22 64.6274 22 58V34Z" fill="white" style="fill:white;fill-opacity:1;" shape-rendering="crispEdges"/>
<path d="M34 22.5H770C776.351 22.5 781.5 27.6487 781.5 34V58C781.5 64.3513 776.351 69.5 770 69.5H34C27.6487 69.5 22.5 64.3513 22.5 58V34C22.5 27.6487 27.6487 22.5 34 22.5Z" stroke="#EBEEF0" style="stroke:#EBEEF0;stroke:color(display-p3 0.9216 0.9333 0.9412);stroke-opacity:1;" shape-rendering="crispEdges"/>
<path id="| Placeholder" d="M37.1818 36.6136V55.75H36.0455V36.6136H37.1818ZM45.6207 52H44.1435L48.4162 40.3636H49.8707L54.1435 52H52.6662L49.1889 42.2045H49.098L45.6207 52ZM46.1662 47.4545H52.1207V48.7045H46.1662V47.4545ZM61.956 45.2273L60.7514 45.5682C60.6757 45.3674 60.5639 45.1723 60.4162 44.983C60.2723 44.7898 60.0753 44.6307 59.8253 44.5057C59.5753 44.3807 59.2552 44.3182 58.8651 44.3182C58.331 44.3182 57.8859 44.4413 57.5298 44.6875C57.1776 44.9299 57.0014 45.2386 57.0014 45.6136C57.0014 45.947 57.1226 46.2102 57.3651 46.4034C57.6075 46.5966 57.9863 46.7576 58.5014 46.8864L59.7969 47.2045C60.5772 47.3939 61.1586 47.6837 61.5412 48.0739C61.9238 48.4602 62.1151 48.9583 62.1151 49.5682C62.1151 50.0682 61.9711 50.5152 61.6832 50.9091C61.3991 51.303 61.0014 51.6136 60.4901 51.8409C59.9787 52.0682 59.384 52.1818 58.706 52.1818C57.8158 52.1818 57.0791 51.9886 56.4957 51.6023C55.9124 51.2159 55.5431 50.6515 55.3878 49.9091L56.6605 49.5909C56.7817 50.0606 57.0109 50.4129 57.348 50.6477C57.6889 50.8826 58.134 51 58.6832 51C59.3082 51 59.8045 50.8674 60.1719 50.6023C60.5431 50.3333 60.7287 50.0114 60.7287 49.6364C60.7287 49.3333 60.6226 49.0795 60.4105 48.875C60.1984 48.6667 59.8726 48.5114 59.4332 48.4091L57.9787 48.0682C57.1795 47.8788 56.5923 47.5852 56.2173 47.1875C55.8461 46.786 55.6605 46.2841 55.6605 45.6818C55.6605 45.1894 55.7988 44.7538 56.0753 44.375C56.3556 43.9962 56.7363 43.6989 57.2173 43.483C57.7022 43.267 58.2514 43.1591 58.8651 43.1591C59.7287 43.1591 60.4067 43.3485 60.8991 43.7273C61.3954 44.1061 61.7476 44.6061 61.956 45.2273ZM65.3835 48.8182L65.3608 47.1591H65.6335L69.4517 43.2727H71.1108L67.0426 47.3864H66.929L65.3835 48.8182ZM64.1335 52V40.3636H65.4744V52H64.1335ZM69.679 52L66.2699 47.6818L67.2244 46.75L71.3835 52H69.679ZM79.9048 52.2045C79.3518 52.2045 78.8499 52.1004 78.3991 51.892C77.9484 51.6799 77.5904 51.375 77.3253 50.9773C77.0601 50.5758 76.9276 50.0909 76.9276 49.5227C76.9276 49.0227 77.026 48.6174 77.223 48.3068C77.42 47.9924 77.6832 47.7462 78.0128 47.5682C78.3423 47.3902 78.706 47.2576 79.1037 47.1705C79.5052 47.0795 79.9086 47.0076 80.3139 46.9545C80.8442 46.8864 81.2741 46.8352 81.6037 46.8011C81.937 46.7633 82.1795 46.7008 82.331 46.6136C82.4863 46.5265 82.5639 46.375 82.5639 46.1591V46.1136C82.5639 45.553 82.4105 45.1174 82.1037 44.8068C81.8007 44.4962 81.3404 44.3409 80.723 44.3409C80.0829 44.3409 79.581 44.4811 79.2173 44.7614C78.8537 45.0417 78.598 45.3409 78.4503 45.6591L77.1776 45.2045C77.4048 44.6742 77.7079 44.2614 78.0866 43.9659C78.4692 43.6667 78.8859 43.4583 79.3366 43.3409C79.7912 43.2197 80.2382 43.1591 80.6776 43.1591C80.9579 43.1591 81.2798 43.1932 81.6435 43.2614C82.0109 43.3258 82.3651 43.4602 82.706 43.6648C83.0507 43.8693 83.3366 44.178 83.5639 44.5909C83.7912 45.0038 83.9048 45.5568 83.9048 46.25V52H82.5639V50.8182H82.4957C82.4048 51.0076 82.2533 51.2102 82.0412 51.4261C81.8291 51.642 81.5469 51.8258 81.1946 51.9773C80.8423 52.1288 80.4124 52.2045 79.9048 52.2045ZM80.1094 51C80.6397 51 81.0866 50.8958 81.4503 50.6875C81.8177 50.4792 82.0942 50.2102 82.2798 49.8807C82.4692 49.5511 82.5639 49.2045 82.5639 48.8409V47.6136C82.5071 47.6818 82.3821 47.7443 82.1889 47.8011C81.9995 47.8542 81.7798 47.9015 81.5298 47.9432C81.2836 47.9811 81.0431 48.0152 80.8082 48.0455C80.5772 48.072 80.3897 48.0947 80.2457 48.1136C79.8973 48.1591 79.5715 48.233 79.2685 48.3352C78.9692 48.4337 78.7268 48.5833 78.5412 48.7841C78.3594 48.9811 78.2685 49.25 78.2685 49.5909C78.2685 50.0568 78.4408 50.4091 78.7855 50.6477C79.134 50.8826 79.5753 51 80.1094 51ZM87.6932 46.75V52H86.3523V43.2727H87.6477V44.6364H87.7614C87.9659 44.1932 88.2765 43.8371 88.6932 43.5682C89.1098 43.2955 89.6477 43.1591 90.3068 43.1591C90.8977 43.1591 91.4148 43.2803 91.858 43.5227C92.3011 43.7614 92.6458 44.125 92.892 44.6136C93.1383 45.0985 93.2614 45.7121 93.2614 46.4545V52H91.9205V46.5455C91.9205 45.8598 91.7424 45.3258 91.3864 44.9432C91.0303 44.5568 90.5417 44.3636 89.9205 44.3636C89.4924 44.3636 89.1098 44.4564 88.7727 44.642C88.4394 44.8277 88.1761 45.0985 87.983 45.4545C87.7898 45.8106 87.6932 46.2424 87.6932 46.75ZM96.2628 55.2727C96.0355 55.2727 95.8329 55.2538 95.6548 55.2159C95.4768 55.1818 95.3537 55.1477 95.2855 55.1136L95.6264 53.9318C95.9522 54.0152 96.2401 54.0455 96.4901 54.0227C96.7401 54 96.9616 53.8883 97.1548 53.6875C97.3518 53.4905 97.5317 53.1705 97.6946 52.7273L97.9446 52.0455L94.7173 43.2727H96.1719L98.581 50.2273H98.6719L101.081 43.2727H102.536L98.831 53.2727C98.6643 53.7235 98.4579 54.0966 98.2116 54.392C97.9654 54.6913 97.6795 54.9129 97.3537 55.0568C97.0317 55.2008 96.6681 55.2727 96.2628 55.2727ZM108.101 43.2727V44.4091H103.578V43.2727H108.101ZM104.896 41.1818H106.237V49.5C106.237 49.8788 106.292 50.1629 106.402 50.3523C106.516 50.5379 106.66 50.6629 106.834 50.7273C107.012 50.7879 107.199 50.8182 107.396 50.8182C107.544 50.8182 107.665 50.8106 107.76 50.7955C107.855 50.7765 107.93 50.7614 107.987 50.75L108.26 51.9545C108.169 51.9886 108.042 52.0227 107.879 52.0568C107.716 52.0947 107.51 52.1136 107.26 52.1136C106.881 52.1136 106.51 52.0322 106.146 51.8693C105.786 51.7064 105.487 51.4583 105.249 51.125C105.014 50.7917 104.896 50.3712 104.896 49.8636V41.1818ZM111.646 46.75V52H110.305V40.3636H111.646V44.6364H111.76C111.964 44.1856 112.271 43.8277 112.68 43.5625C113.093 43.2936 113.643 43.1591 114.328 43.1591C114.923 43.1591 115.444 43.2784 115.891 43.517C116.338 43.7519 116.684 44.1136 116.93 44.6023C117.18 45.0871 117.305 45.7045 117.305 46.4545V52H115.964V46.5455C115.964 45.8523 115.785 45.3163 115.425 44.9375C115.069 44.5549 114.574 44.3636 113.942 44.3636C113.502 44.3636 113.108 44.4564 112.76 44.642C112.415 44.8277 112.143 45.0985 111.942 45.4545C111.745 45.8106 111.646 46.2424 111.646 46.75ZM119.759 52V43.2727H121.099V52H119.759ZM120.44 41.8182C120.179 41.8182 119.954 41.7292 119.764 41.5511C119.579 41.3731 119.486 41.1591 119.486 40.9091C119.486 40.6591 119.579 40.4451 119.764 40.267C119.954 40.089 120.179 40 120.44 40C120.702 40 120.925 40.089 121.111 40.267C121.3 40.4451 121.395 40.6591 121.395 40.9091C121.395 41.1591 121.3 41.3731 121.111 41.5511C120.925 41.7292 120.702 41.8182 120.44 41.8182ZM124.896 46.75V52H123.555V43.2727H124.851V44.6364H124.964C125.169 44.1932 125.48 43.8371 125.896 43.5682C126.313 43.2955 126.851 43.1591 127.51 43.1591C128.101 43.1591 128.618 43.2803 129.061 43.5227C129.504 43.7614 129.849 44.125 130.095 44.6136C130.341 45.0985 130.464 45.7121 130.464 46.4545V52H129.124V46.5455C129.124 45.8598 128.946 45.3258 128.589 44.9432C128.233 44.5568 127.745 44.3636 127.124 44.3636C126.696 44.3636 126.313 44.4564 125.976 44.642C125.643 44.8277 125.379 45.0985 125.186 45.4545C124.993 45.8106 124.896 46.2424 124.896 46.75ZM136.438 55.4545C135.79 55.4545 135.233 55.3712 134.767 55.2045C134.301 55.0417 133.913 54.8258 133.602 54.5568C133.295 54.2917 133.051 54.0076 132.869 53.7045L133.938 52.9545C134.059 53.1136 134.212 53.2955 134.398 53.5C134.583 53.7083 134.837 53.8883 135.159 54.0398C135.485 54.1951 135.911 54.2727 136.438 54.2727C137.142 54.2727 137.723 54.1023 138.182 53.7614C138.64 53.4205 138.869 52.8864 138.869 52.1591V50.3864H138.756C138.657 50.5455 138.517 50.7424 138.335 50.9773C138.157 51.2083 137.9 51.4148 137.562 51.5966C137.229 51.7746 136.778 51.8636 136.21 51.8636C135.506 51.8636 134.873 51.697 134.312 51.3636C133.756 51.0303 133.314 50.5455 132.989 49.9091C132.667 49.2727 132.506 48.5 132.506 47.5909C132.506 46.697 132.663 45.9186 132.977 45.2557C133.292 44.589 133.729 44.0739 134.29 43.7102C134.85 43.3428 135.498 43.1591 136.233 43.1591C136.801 43.1591 137.252 43.2538 137.585 43.4432C137.922 43.6288 138.18 43.8409 138.358 44.0795C138.54 44.3144 138.68 44.5076 138.778 44.6591H138.915V43.2727H140.21V52.25C140.21 53 140.04 53.6098 139.699 54.0795C139.362 54.553 138.907 54.8996 138.335 55.1193C137.767 55.3428 137.134 55.4545 136.438 55.4545ZM136.392 50.6591C136.93 50.6591 137.384 50.536 137.756 50.2898C138.127 50.0436 138.409 49.6894 138.602 49.2273C138.795 48.7652 138.892 48.2121 138.892 47.5682C138.892 46.9394 138.797 46.3845 138.608 45.9034C138.419 45.4223 138.138 45.0455 137.767 44.7727C137.396 44.5 136.938 44.3636 136.392 44.3636C135.824 44.3636 135.35 44.5076 134.972 44.7955C134.597 45.0833 134.314 45.4697 134.125 45.9545C133.939 46.4394 133.847 46.9773 133.847 47.5682C133.847 48.1742 133.941 48.7102 134.131 49.1761C134.324 49.6383 134.608 50.0019 134.983 50.267C135.362 50.5284 135.831 50.6591 136.392 50.6591ZM149.733 52.2045C149.18 52.2045 148.678 52.1004 148.227 51.892C147.777 51.6799 147.419 51.375 147.153 50.9773C146.888 50.5758 146.756 50.0909 146.756 49.5227C146.756 49.0227 146.854 48.6174 147.051 48.3068C147.248 47.9924 147.511 47.7462 147.841 47.5682C148.17 47.3902 148.534 47.2576 148.932 47.1705C149.333 47.0795 149.737 47.0076 150.142 46.9545C150.672 46.8864 151.102 46.8352 151.432 46.8011C151.765 46.7633 152.008 46.7008 152.159 46.6136C152.314 46.5265 152.392 46.375 152.392 46.1591V46.1136C152.392 45.553 152.239 45.1174 151.932 44.8068C151.629 44.4962 151.169 44.3409 150.551 44.3409C149.911 44.3409 149.409 44.4811 149.045 44.7614C148.682 45.0417 148.426 45.3409 148.278 45.6591L147.006 45.2045C147.233 44.6742 147.536 44.2614 147.915 43.9659C148.297 43.6667 148.714 43.4583 149.165 43.3409C149.619 43.2197 150.066 43.1591 150.506 43.1591C150.786 43.1591 151.108 43.1932 151.472 43.2614C151.839 43.3258 152.193 43.4602 152.534 43.6648C152.879 43.8693 153.165 44.178 153.392 44.5909C153.619 45.0038 153.733 45.5568 153.733 46.25V52H152.392V50.8182H152.324C152.233 51.0076 152.081 51.2102 151.869 51.4261C151.657 51.642 151.375 51.8258 151.023 51.9773C150.67 52.1288 150.241 52.2045 149.733 52.2045ZM149.938 51C150.468 51 150.915 50.8958 151.278 50.6875C151.646 50.4792 151.922 50.2102 152.108 49.8807C152.297 49.5511 152.392 49.2045 152.392 48.8409V47.6136C152.335 47.6818 152.21 47.7443 152.017 47.8011C151.828 47.8542 151.608 47.9015 151.358 47.9432C151.112 47.9811 150.871 48.0152 150.636 48.0455C150.405 48.072 150.218 48.0947 150.074 48.1136C149.725 48.1591 149.4 48.233 149.097 48.3352C148.797 48.4337 148.555 48.5833 148.369 48.7841C148.188 48.9811 148.097 49.25 148.097 49.5909C148.097 50.0568 148.269 50.4091 148.614 50.6477C148.962 50.8826 149.403 51 149.938 51ZM156.362 52V40.3636H157.703V44.6591H157.817C157.915 44.5076 158.052 44.3144 158.226 44.0795C158.404 43.8409 158.658 43.6288 158.987 43.4432C159.321 43.2538 159.771 43.1591 160.339 43.1591C161.074 43.1591 161.722 43.3428 162.283 43.7102C162.843 44.0777 163.281 44.5985 163.595 45.2727C163.91 45.947 164.067 46.7424 164.067 47.6591C164.067 48.5833 163.91 49.3845 163.595 50.0625C163.281 50.7367 162.845 51.2595 162.288 51.6307C161.732 51.9981 161.089 52.1818 160.362 52.1818C159.802 52.1818 159.353 52.089 159.016 51.9034C158.679 51.714 158.419 51.5 158.237 51.2614C158.055 51.0189 157.915 50.8182 157.817 50.6591H157.658V52H156.362ZM157.68 47.6364C157.68 48.2955 157.777 48.8769 157.97 49.3807C158.163 49.8807 158.446 50.2727 158.817 50.5568C159.188 50.8371 159.643 50.9773 160.18 50.9773C160.741 50.9773 161.209 50.8295 161.584 50.5341C161.963 50.2348 162.247 49.8333 162.436 49.3295C162.629 48.822 162.726 48.2576 162.726 47.6364C162.726 47.0227 162.631 46.4697 162.442 45.9773C162.256 45.4811 161.974 45.089 161.595 44.8011C161.22 44.5095 160.749 44.3636 160.18 44.3636C159.635 44.3636 159.177 44.5019 158.805 44.7784C158.434 45.0511 158.154 45.4337 157.964 45.9261C157.775 46.4148 157.68 46.9848 157.68 47.6364ZM169.663 52.1818C168.875 52.1818 168.184 51.9943 167.589 51.6193C166.999 51.2443 166.536 50.7197 166.203 50.0455C165.874 49.3712 165.709 48.5833 165.709 47.6818C165.709 46.7727 165.874 45.9792 166.203 45.3011C166.536 44.6231 166.999 44.0966 167.589 43.7216C168.184 43.3466 168.875 43.1591 169.663 43.1591C170.451 43.1591 171.141 43.3466 171.732 43.7216C172.326 44.0966 172.788 44.6231 173.118 45.3011C173.451 45.9792 173.618 46.7727 173.618 47.6818C173.618 48.5833 173.451 49.3712 173.118 50.0455C172.788 50.7197 172.326 51.2443 171.732 51.6193C171.141 51.9943 170.451 52.1818 169.663 52.1818ZM169.663 50.9773C170.262 50.9773 170.754 50.8239 171.141 50.517C171.527 50.2102 171.813 49.8068 171.999 49.3068C172.184 48.8068 172.277 48.2652 172.277 47.6818C172.277 47.0985 172.184 46.5549 171.999 46.0511C171.813 45.5473 171.527 45.1402 171.141 44.8295C170.754 44.5189 170.262 44.3636 169.663 44.3636C169.065 44.3636 168.572 44.5189 168.186 44.8295C167.8 45.1402 167.514 45.5473 167.328 46.0511C167.143 46.5549 167.05 47.0985 167.05 47.6818C167.05 48.2652 167.143 48.8068 167.328 49.3068C167.514 49.8068 167.8 50.2102 168.186 50.517C168.572 50.8239 169.065 50.9773 169.663 50.9773ZM181.165 48.4318V43.2727H182.506V52H181.165V50.5227H181.074C180.869 50.9659 180.551 51.3428 180.119 51.6534C179.688 51.9602 179.142 52.1136 178.483 52.1136C177.938 52.1136 177.453 51.9943 177.028 51.7557C176.604 51.5133 176.271 51.1496 176.028 50.6648C175.786 50.1761 175.665 49.5606 175.665 48.8182V43.2727H177.006V48.7273C177.006 49.3636 177.184 49.8712 177.54 50.25C177.9 50.6288 178.358 50.8182 178.915 50.8182C179.248 50.8182 179.587 50.733 179.932 50.5625C180.28 50.392 180.572 50.1307 180.807 49.7784C181.045 49.4261 181.165 48.9773 181.165 48.4318ZM188.757 43.2727V44.4091H184.234V43.2727H188.757ZM185.553 41.1818H186.893V49.5C186.893 49.8788 186.948 50.1629 187.058 50.3523C187.172 50.5379 187.316 50.6629 187.49 50.7273C187.668 50.7879 187.856 50.8182 188.053 50.8182C188.2 50.8182 188.321 50.8106 188.416 50.7955C188.511 50.7765 188.587 50.7614 188.643 50.75L188.916 51.9545C188.825 51.9886 188.698 52.0227 188.536 52.0568C188.373 52.0947 188.166 52.1136 187.916 52.1136C187.537 52.1136 187.166 52.0322 186.803 51.8693C186.443 51.7064 186.143 51.4583 185.905 51.125C185.67 50.7917 185.553 50.3712 185.553 49.8636V41.1818ZM198.82 52.1818C198.001 52.1818 197.297 51.9886 196.706 51.6023C196.115 51.2159 195.661 50.6837 195.342 50.0057C195.024 49.3277 194.865 48.553 194.865 47.6818C194.865 46.7955 195.028 46.0133 195.354 45.3352C195.683 44.6534 196.142 44.1212 196.729 43.7386C197.32 43.3523 198.009 43.1591 198.797 43.1591C199.411 43.1591 199.964 43.2727 200.456 43.5C200.948 43.7273 201.352 44.0455 201.666 44.4545C201.981 44.8636 202.176 45.3409 202.251 45.8864H200.911C200.808 45.4886 200.581 45.1364 200.229 44.8295C199.88 44.5189 199.411 44.3636 198.82 44.3636C198.297 44.3636 197.839 44.5 197.445 44.7727C197.054 45.0417 196.75 45.4223 196.53 45.9148C196.314 46.4034 196.206 46.9773 196.206 47.6364C196.206 48.3106 196.312 48.8977 196.524 49.3977C196.74 49.8977 197.043 50.286 197.433 50.5625C197.827 50.839 198.289 50.9773 198.82 50.9773C199.168 50.9773 199.484 50.9167 199.768 50.7955C200.053 50.6742 200.293 50.5 200.49 50.2727C200.687 50.0455 200.827 49.7727 200.911 49.4545H202.251C202.176 49.9697 201.988 50.4337 201.689 50.8466C201.393 51.2557 201.001 51.5814 200.513 51.8239C200.028 52.0625 199.464 52.1818 198.82 52.1818ZM204.212 52V43.2727H205.507V44.5909H205.598C205.757 44.1591 206.045 43.8087 206.462 43.5398C206.878 43.2708 207.348 43.1364 207.871 43.1364C207.969 43.1364 208.092 43.1383 208.24 43.142C208.388 43.1458 208.5 43.1515 208.575 43.1591V44.5227C208.53 44.5114 208.426 44.4943 208.263 44.4716C208.104 44.4451 207.935 44.4318 207.757 44.4318C207.333 44.4318 206.954 44.5208 206.621 44.6989C206.291 44.8731 206.03 45.1155 205.837 45.4261C205.647 45.733 205.553 46.0833 205.553 46.4773V52H204.212ZM211.294 55.2727C211.067 55.2727 210.864 55.2538 210.686 55.2159C210.508 55.1818 210.385 55.1477 210.317 55.1136L210.658 53.9318C210.983 54.0152 211.271 54.0455 211.521 54.0227C211.771 54 211.993 53.8883 212.186 53.6875C212.383 53.4905 212.563 53.1705 212.726 52.7273L212.976 52.0455L209.749 43.2727H211.203L213.612 50.2273H213.703L216.112 43.2727H217.567L213.862 53.2727C213.696 53.7235 213.489 54.0966 213.243 54.392C212.997 54.6913 212.711 54.9129 212.385 55.0568C212.063 55.2008 211.699 55.2727 211.294 55.2727ZM219.337 55.2727V43.2727H220.632V44.6591H220.791C220.89 44.5076 221.026 44.3144 221.2 44.0795C221.378 43.8409 221.632 43.6288 221.962 43.4432C222.295 43.2538 222.746 43.1591 223.314 43.1591C224.049 43.1591 224.696 43.3428 225.257 43.7102C225.818 44.0777 226.255 44.5985 226.57 45.2727C226.884 45.947 227.041 46.7424 227.041 47.6591C227.041 48.5833 226.884 49.3845 226.57 50.0625C226.255 50.7367 225.82 51.2595 225.263 51.6307C224.706 51.9981 224.064 52.1818 223.337 52.1818C222.776 52.1818 222.327 52.089 221.99 51.9034C221.653 51.714 221.393 51.5 221.212 51.2614C221.03 51.0189 220.89 50.8182 220.791 50.6591H220.678V55.2727H219.337ZM220.655 47.6364C220.655 48.2955 220.751 48.8769 220.945 49.3807C221.138 49.8807 221.42 50.2727 221.791 50.5568C222.162 50.8371 222.617 50.9773 223.155 50.9773C223.715 50.9773 224.183 50.8295 224.558 50.5341C224.937 50.2348 225.221 49.8333 225.411 49.3295C225.604 48.822 225.7 48.2576 225.7 47.6364C225.7 47.0227 225.606 46.4697 225.416 45.9773C225.231 45.4811 224.948 45.089 224.57 44.8011C224.195 44.5095 223.723 44.3636 223.155 44.3636C222.609 44.3636 222.151 44.5019 221.78 44.7784C221.409 45.0511 221.128 45.4337 220.939 45.9261C220.75 46.4148 220.655 46.9848 220.655 47.6364ZM232.882 43.2727V44.4091H228.359V43.2727H232.882ZM229.678 41.1818H231.018V49.5C231.018 49.8788 231.073 50.1629 231.183 50.3523C231.297 50.5379 231.441 50.6629 231.615 50.7273C231.793 50.7879 231.981 50.8182 232.178 50.8182C232.325 50.8182 232.446 50.8106 232.541 50.7955C232.636 50.7765 232.712 50.7614 232.768 50.75L233.041 51.9545C232.95 51.9886 232.823 52.0227 232.661 52.0568C232.498 52.0947 232.291 52.1136 232.041 52.1136C231.662 52.1136 231.291 52.0322 230.928 51.8693C230.568 51.7064 230.268 51.4583 230.03 51.125C229.795 50.7917 229.678 50.3712 229.678 49.8636V41.1818ZM238.351 52.1818C237.563 52.1818 236.872 51.9943 236.277 51.6193C235.686 51.2443 235.224 50.7197 234.891 50.0455C234.561 49.3712 234.396 48.5833 234.396 47.6818C234.396 46.7727 234.561 45.9792 234.891 45.3011C235.224 44.6231 235.686 44.0966 236.277 43.7216C236.872 43.3466 237.563 43.1591 238.351 43.1591C239.139 43.1591 239.828 43.3466 240.419 43.7216C241.014 44.0966 241.476 44.6231 241.805 45.3011C242.139 45.9792 242.305 46.7727 242.305 47.6818C242.305 48.5833 242.139 49.3712 241.805 50.0455C241.476 50.7197 241.014 51.2443 240.419 51.6193C239.828 51.9943 239.139 52.1818 238.351 52.1818ZM238.351 50.9773C238.949 50.9773 239.442 50.8239 239.828 50.517C240.214 50.2102 240.5 49.8068 240.686 49.3068C240.872 48.8068 240.964 48.2652 240.964 47.6818C240.964 47.0985 240.872 46.5549 240.686 46.0511C240.5 45.5473 240.214 45.1402 239.828 44.8295C239.442 44.5189 238.949 44.3636 238.351 44.3636C237.752 44.3636 237.26 44.5189 236.874 44.8295C236.487 45.1402 236.201 45.5473 236.016 46.0511C235.83 46.5549 235.737 47.0985 235.737 47.6818C235.737 48.2652 235.83 48.8068 236.016 49.3068C236.201 49.8068 236.487 50.2102 236.874 50.517C237.26 50.8239 237.752 50.9773 238.351 50.9773Z" fill="#252D32" style="fill:#252D32;fill:color(display-p3 0.1451 0.1765 0.1961);fill-opacity:1;"/>
<g id="Primary Action">
<g id="icons/Mic">
<path id="icon" d="M710 47.5C709.3 47.5 708.708 47.2583 708.225 46.775C707.742 46.2917 707.5 45.7 707.5 45V39C707.5 38.3 707.742 37.7083 708.225 37.225C708.708 36.7417 709.3 36.5 710 36.5C710.7 36.5 711.292 36.7417 711.775 37.225C712.258 37.7083 712.5 38.3 712.5 39V45C712.5 45.7 712.258 46.2917 711.775 46.775C711.292 47.2583 710.7 47.5 710 47.5ZM709.25 54V51.45C707.767 51.2833 706.492 50.675 705.425 49.625C704.358 48.575 703.733 47.2917 703.55 45.775C703.533 45.5583 703.592 45.375 703.725 45.225C703.858 45.075 704.033 45 704.25 45C704.467 45 704.642 45.075 704.775 45.225C704.925 45.375 705.025 45.55 705.075 45.75C705.258 46.9833 705.817 48 706.75 48.8C707.683 49.6 708.767 50 710 50C711.25 50 712.333 49.6 713.25 48.8C714.183 47.9833 714.742 46.9667 714.925 45.75C714.975 45.55 715.067 45.375 715.2 45.225C715.35 45.075 715.533 45 715.75 45C715.967 45 716.142 45.075 716.275 45.225C716.408 45.375 716.467 45.5583 716.45 45.775C716.267 47.2583 715.642 48.5333 714.575 49.6C713.525 50.65 712.25 51.2667 710.75 51.45V54C710.75 54.2167 710.675 54.4 710.525 54.55C710.392 54.6833 710.217 54.75 710 54.75C709.783 54.75 709.6 54.6833 709.45 54.55C709.317 54.4 709.25 54.2167 709.25 54ZM710 46C710.283 46 710.517 45.9083 710.7 45.725C710.9 45.525 711 45.2833 711 45V39C711 38.7167 710.9 38.4833 710.7 38.3C710.517 38.1 710.283 38 710 38C709.717 38 709.475 38.1 709.275 38.3C709.092 38.4833 709 38.7167 709 39V45C709 45.2833 709.092 45.525 709.275 45.725C709.475 45.9083 709.717 46 710 46Z" fill="#252D32" style="fill:#252D32;fill:color(display-p3 0.1451 0.1765 0.1961);fill-opacity:1;"/>
</g>
</g>
<g id="Primary Action_2">
<path d="M738 38C738 31.3726 743.373 26 750 26H766C772.627 26 778 31.3726 778 38V54C778 60.6274 772.627 66 766 66H750C743.373 66 738 60.6274 738 54V38Z" fill="#D1DBF9" style="fill:#D1DBF9;fill:color(display-p3 0.8196 0.8588 0.9765);fill-opacity:1;"/>
<g id="icons/AI">
<path id="vector" d="M760.173 48.1733C758.022 50.3242 758 55.6533 758 55.6533C758 55.6533 757.978 50.3242 755.827 48.1733C753.676 46.0224 748.347 46.0005 748.347 46.0005C748.347 46.0005 753.676 45.9786 755.827 43.8277C757.978 41.6767 758 36.3477 758 36.3477C758 36.3477 758.022 41.6767 760.173 43.8277C762.324 45.9786 767.653 46.0005 767.653 46.0005C767.653 46.0005 762.324 46.0224 760.173 48.1733Z" stroke="#252D32" style="stroke:#252D32;stroke:color(display-p3 0.1451 0.1765 0.1961);stroke-opacity:1;" stroke-width="1.3" stroke-linejoin="round"/>
<path id="vector_2" d="M751.423 39.9495L751.011 41.2037C750.928 41.456 750.572 41.456 750.489 41.2037L750.077 39.9495C749.995 39.7002 749.8 39.5046 749.551 39.4228L748.296 39.0113C748.044 38.9285 748.044 38.5715 748.296 38.4887L749.551 38.0772C749.8 37.9954 749.995 37.7998 750.077 37.5505L750.489 36.2963C750.572 36.044 750.928 36.044 751.011 36.2963L751.423 37.5505C751.505 37.7998 751.7 37.9954 751.949 38.0772L753.204 38.4887C753.456 38.5715 753.456 38.9285 753.204 39.0113L751.949 39.4228C751.7 39.5046 751.505 39.7002 751.423 39.9495Z" fill="#252D32" style="fill:#252D32;fill:color(display-p3 0.1451 0.1765 0.1961);fill-opacity:1;"/>
<path id="vector_3" d="M765.923 54.4495L765.511 55.7037C765.428 55.956 765.072 55.956 764.989 55.7037L764.577 54.4495C764.495 54.2002 764.3 54.0046 764.051 53.9228L762.796 53.5113C762.544 53.4285 762.544 53.0715 762.796 52.9887L764.051 52.5772C764.3 52.4954 764.495 52.2998 764.577 52.0505L764.989 50.7963C765.072 50.544 765.428 50.544 765.511 50.7963L765.923 52.0505C766.005 52.2998 766.2 52.4954 766.449 52.5772L767.704 52.9887C767.956 53.0715 767.956 53.4285 767.704 53.5113L766.449 53.9228C766.2 54.0046 766.005 54.2002 765.923 54.4495Z" fill="#252D32" style="fill:#252D32;fill:color(display-p3 0.1451 0.1765 0.1961);fill-opacity:1;"/>
</g>
</g>
</g>
</g>
</g>
</g>
</g>
</g>
</g>
</g>
<defs>
<filter id="filter0_d_881_20430" x="0" y="0" width="804" height="92" filterUnits="userSpaceOnUse" color-interpolation-filters="sRGB">
<feFlood flood-opacity="0" result="BackgroundImageFix"/>
<feColorMatrix in="SourceAlpha" type="matrix" values="0 0 0 0 0 0 0 0 0 0 0 0 0 0 0 0 0 0 127 0" result="hardAlpha"/>
<feOffset/>
<feGaussianBlur stdDeviation="11"/>
<feComposite in2="hardAlpha" operator="out"/>
<feColorMatrix type="matrix" values="0 0 0 0 0.121569 0 0 0 0 0.145098 0 0 0 0 0.160784 0 0 0 0.08 0"/>
<feBlend mode="normal" in2="BackgroundImageFix" result="effect1_dropShadow_881_20430"/>
<feBlend mode="normal" in="SourceGraphic" in2="effect1_dropShadow_881_20430" result="shape"/>
</filter>
<linearGradient id="paint0_linear_881_20430" x1="595" y1="0" x2="595" y2="982" gradientUnits="userSpaceOnUse">
<stop stop-color="#FCFDFD" style="stop-color:#FCFDFD;stop-color:color(display-p3 0.9882 0.9922 0.9922);stop-opacity:1;"/>
<stop offset="1" stop-color="#F4F5F7" style="stop-color:#F4F5F7;stop-color:color(display-p3 0.9569 0.9608 0.9686);stop-opacity:1;"/>
</linearGradient>
</defs>
</svg>
