<svg xmlns="http://www.w3.org/2000/svg" width="14" height="14" viewBox="9 4 12 12" fill="none">
  <path d="M15.918 12.8331L15.1901 15.0516C15.1298 15.2352 14.8702 15.2352 14.81 15.0516L14.082 12.8331C13.7845 11.9265 13.0735 11.2154 12.1669 10.9179L9.94835 10.19C9.76482 10.1298 9.76482 9.87015 9.94834 9.80993L12.1669 9.08197C13.0735 8.78449 13.7845 8.07344 14.082 7.16681L14.81 4.94828C14.8702 4.76476 15.1298 4.76476 15.1901 4.94828L15.918 7.16681C16.2155 8.07344 16.9265 8.78449 17.8332 9.08197L20.0517 9.80993C20.2352 9.87015 20.2352 10.1298 20.0517 10.19L17.8332 10.9179C16.9265 11.2154 16.2155 11.9265 15.918 12.8331Z" fill="currentColor"/>
</svg>
