<svg width="18" height="18" viewBox="0 0 18 18" fill="none" xmlns="http://www.w3.org/2000/svg">
<path d="M5.49375 9C5.49375 9.1375 5.44375 9.25625 5.34375 9.35625C5.25625 9.44375 5.14375 9.4875 5.00625 9.4875H1.85625C1.71875 9.4875 1.6 9.44375 1.5 9.35625C1.4125 9.25625 1.36875 9.1375 1.36875 9C1.36875 8.8625 1.4125 8.75 1.5 8.6625C1.6 8.5625 1.71875 8.5125 1.85625 8.5125H5.00625C5.14375 8.5125 5.25625 8.5625 5.34375 8.6625C5.44375 8.75 5.49375 8.8625 5.49375 9ZM6.525 6.4875C6.4125 6.6 6.29375 6.65625 6.16875 6.65625C6.04375 6.65625 5.925 6.6 5.8125 6.4875L5.11875 5.8125C5.01875 5.7 4.96875 5.5875 4.96875 5.475C4.96875 5.35 5.01875 5.23125 5.11875 5.11875C5.23125 5.01875 5.35 4.96875 5.475 4.96875C5.6 4.95625 5.71875 5.00625 5.83125 5.11875L6.50625 5.79375C6.60625 5.90625 6.6625 6.025 6.675 6.15C6.6875 6.2625 6.6375 6.375 6.525 6.4875ZM8.5125 5.00625V1.85625C8.5125 1.71875 8.55625 1.60625 8.64375 1.51875C8.74375 1.41875 8.8625 1.36875 9 1.36875C9.1375 1.36875 9.25 1.41875 9.3375 1.51875C9.4375 1.60625 9.4875 1.71875 9.4875 1.85625V5.00625C9.4875 5.14375 9.4375 5.2625 9.3375 5.3625C9.25 5.45 9.1375 5.49375 9 5.49375C8.8625 5.49375 8.74375 5.45 8.64375 5.3625C8.55625 5.2625 8.5125 5.14375 8.5125 5.00625ZM11.4938 6.50625C11.3813 6.39375 11.325 6.28125 11.325 6.16875C11.325 6.04375 11.3813 5.925 11.4938 5.8125L12.1688 5.11875C12.2813 5.01875 12.4 4.96875 12.525 4.96875C12.65 4.96875 12.7688 5.01875 12.8813 5.11875C12.9813 5.23125 13.0313 5.35 13.0313 5.475C13.0313 5.6 12.9813 5.7125 12.8813 5.8125L12.1688 6.525C12.0688 6.625 11.9563 6.675 11.8313 6.675C11.7188 6.675 11.6063 6.61875 11.4938 6.50625ZM12.5063 9C12.5063 8.8625 12.55 8.75 12.6375 8.6625C12.7375 8.5625 12.8563 8.5125 12.9938 8.5125H16.1438C16.2813 8.5125 16.3938 8.5625 16.4813 8.6625C16.5813 8.75 16.6313 8.8625 16.6313 9C16.6313 9.1375 16.5813 9.25625 16.4813 9.35625C16.3938 9.44375 16.2813 9.4875 16.1438 9.4875H12.9938C12.8563 9.4875 12.7375 9.44375 12.6375 9.35625C12.55 9.25625 12.5063 9.1375 12.5063 9ZM9 10.875C8.4625 10.875 8.0125 10.7 7.65 10.35C7.3 9.9875 7.125 9.5375 7.125 9C7.125 8.4625 7.3 8.01875 7.65 7.66875C8.0125 7.30625 8.4625 7.125 9 7.125C9.5375 7.125 9.98125 7.30625 10.3313 7.66875C10.6938 8.01875 10.875 8.4625 10.875 9C10.875 9.5375 10.6938 9.9875 10.3313 10.35C9.98125 10.7 9.5375 10.875 9 10.875ZM11.4938 11.475C11.6063 11.3625 11.7188 11.3062 11.8313 11.3062C11.9563 11.3062 12.075 11.3625 12.1875 11.475L12.8813 12.1687C12.9813 12.2812 13.0313 12.4 13.0313 12.525C13.0313 12.6375 12.9813 12.75 12.8813 12.8625C12.7688 12.9625 12.65 13.0125 12.525 13.0125C12.4 13.0125 12.2813 12.9625 12.1688 12.8625L11.475 12.1687C11.375 12.0687 11.325 11.9562 11.325 11.8312C11.325 11.7062 11.3813 11.5875 11.4938 11.475ZM6.50625 11.475C6.61875 11.5875 6.66875 11.7062 6.65625 11.8312C6.65625 11.9437 6.6 12.0625 6.4875 12.1875L5.8125 12.8625C5.7 12.975 5.58125 13.0312 5.45625 13.0312C5.34375 13.0312 5.23125 12.9812 5.11875 12.8812C5.01875 12.7687 4.9625 12.65 4.95 12.525C4.95 12.4 5.00625 12.2812 5.11875 12.1687L5.79375 11.4937C5.90625 11.3937 6.025 11.3375 6.15 11.325C6.275 11.3125 6.39375 11.3625 6.50625 11.475ZM9 12.5062C9.1375 12.5062 9.25 12.5562 9.3375 12.6562C9.4375 12.7437 9.4875 12.8562 9.4875 12.9937V16.1437C9.4875 16.2812 9.4375 16.4 9.3375 16.5C9.25 16.5875 9.1375 16.6312 9 16.6312C8.8625 16.6312 8.74375 16.5875 8.64375 16.5C8.55625 16.4 8.5125 16.2812 8.5125 16.1437V12.9937C8.5125 12.8562 8.55625 12.7437 8.64375 12.6562C8.74375 12.5562 8.8625 12.5062 9 12.5062Z" fill="#4F5F69" style="fill:#4F5F69;fill:color(display-p3 0.3098 0.3725 0.4118);fill-opacity:1;"/>
</svg>
