<svg width="26" height="26" viewBox="0 0 26 26" fill="none" xmlns="http://www.w3.org/2000/svg">
<path d="M0 13C0 5.8203 5.8203 0 13 0C20.1797 0 26 5.8203 26 13C26 20.1797 20.1797 26 13 26C5.8203 26 0 20.1797 0 13Z" fill="#D9F2EA" style="fill:#D9F2EA;fill:color(display-p3 0.8510 0.9490 0.9176);fill-opacity:1;"/>
<path d="M11.2938 15.3625L17.0313 9.625C17.1188 9.525 17.225 9.475 17.35 9.475C17.4875 9.475 17.6125 9.525 17.725 9.625C17.825 9.725 17.875 9.84375 17.875 9.98125C17.875 10.1062 17.825 10.2187 17.725 10.3187L11.725 16.3187C11.6125 16.4437 11.475 16.5062 11.3125 16.5062C11.15 16.5062 11.0063 16.4437 10.8813 16.3187L8.29375 13.7312C8.19375 13.6312 8.1375 13.5187 8.125 13.3937C8.125 13.2562 8.175 13.1375 8.275 13.0375C8.3875 12.9375 8.50625 12.8875 8.63125 12.8875C8.75625 12.8875 8.86875 12.9375 8.96875 13.0375L11.2938 15.3625Z" fill="#00110C" style="fill:#00110C;fill:color(display-p3 0.0000 0.0667 0.0471);fill-opacity:1;"/>
</svg>
